<?xml version="1.0" encoding="UTF-8"?>
<!--
  Phone
  APRS table /, symbol $.

  Generated by tools/symbols_to_vector.py from symbols/symbols.dat.
  Edit the .dat and regenerate, or replace this file with hand drawn art.
  Either way the generator's check mode is the gate: it rasterises every
  outline back to 20x20 and requires it to match the .dat exactly.
-->
<svg xmlns="http://www.w3.org/2000/svg" viewBox="0 0 20 20" width="20" height="20">
  <path fill="#0000CD" fill-rule="nonzero" d="M 12 4 L 16,4 16,9 17,9 17,4 16,4 16,3 12,3 Z M 12 4 L 11,4 11,7 12,7 12,9 11,9 11,10 10,10 10,11 9,11 9,12 7,12 7,11 4,11 4,12 3,12 3,16 4,16 4,17 9,17 9,16 10,16 10,15 9,15 9,16 4,16 4,12 7,12 7,13 9,13 9,12 10,12 10,11 11,11 11,10 12,10 12,9 13,9 13,7 12,7 Z M 2 18 L 2,2 18,2 18,18 Z M 11 14 L 12,14 12,13 13,13 13,12 14,12 14,11 13,11 13,12 12,12 12,13 11,13 Z M 11 14 L 10,14 10,15 11,15 Z M 14 10 L 14,11 15,11 15,10 Z M 15 9 L 15,10 16,10 16,9 Z"/>
  <path fill="#FFFFFF" fill-rule="nonzero" d="M 12 7 L 13,7 13,9 12,9 Z M 12 7 L 11,7 11,4 12,4 12,3 16,3 16,4 17,4 17,9 16,9 16,10 15,10 15,11 14,11 14,10 15,10 15,9 16,9 16,4 12,4 Z M 14 11 L 14,12 13,12 13,11 Z M 4 16 L 3,16 3,12 4,12 Z M 9 16 L 9,17 4,17 4,16 Z M 9 12 L 9,13 7,13 7,12 4,12 4,11 7,11 7,12 Z M 9 12 L 9,11 10,11 10,12 Z M 10 11 L 10,10 11,10 11,9 12,9 12,10 11,10 11,11 Z M 13 12 L 13,13 12,13 12,12 Z M 12 13 L 12,14 11,14 11,15 10,15 10,14 11,14 11,13 Z M 10 15 L 10,16 9,16 9,15 Z"/>
</svg>
