<?xml version="1.0" encoding="UTF-8"?>
<!--
  Drizzle
  APRS table \, symbol D.

  Generated by tools/symbols_to_vector.py from symbols/symbols.dat.
  Edit the .dat and regenerate, or replace this file with hand drawn art.
  Either way the generator's check mode is the gate: it rasterises every
  outline back to 20x20 and requires it to match the .dat exactly.
-->
<svg xmlns="http://www.w3.org/2000/svg" viewBox="0 0 20 20" width="20" height="20">
  <path fill="#000000" fill-rule="nonzero" d="M 5 9 L 5,10 3,10 3,11 5,11 5,10 6,10 6,11 5,11 5,13 6,13 6,14 5,14 5,13 4,13 4,12 3,12 3,14 2,14 2,9 Z M 18 3 L 18,4 17,4 17,5 16,5 16,6 15,6 15,5 16,5 16,4 13,4 13,3 Z M 18 14 L 17,14 17,13 16,13 16,14 15,14 15,9 16,9 16,10 17,10 17,9 18,9 Z M 12 8 L 11,8 11,3 12,3 Z M 15 6 L 15,7 18,7 18,8 13,8 13,7 14,7 14,6 Z M 8 12 L 8,14 7,14 7,11 8,11 8,10 9,10 9,9 10,9 10,10 9,10 9,11 10,11 10,10 11,10 11,11 12,11 12,14 11,14 11,12 Z M 3 4 L 3,7 4,7 4,8 2,8 2,3 4,3 4,4 Z M 14 14 L 13,14 13,9 14,9 Z M 7 4 L 7,5 9,5 9,7 10,7 10,8 9,8 9,7 8,7 8,6 7,6 7,8 6,8 6,3 9,3 9,4 Z M 4 4 L 5,4 5,7 4,7 Z M 9 4 L 10,4 10,5 9,5 Z"/>
</svg>
