<?xml version="1.0" encoding="UTF-8"?>
<!--
  Indoor Short Range Digi (w overlay)
  APRS table \, symbol i.

  Generated by tools/symbols_to_vector.py from symbols/symbols.dat.
  Edit the .dat and regenerate, or replace this file with hand drawn art.
  Either way the generator's check mode is the gate: it rasterises every
  outline back to 20x20 and requires it to match the .dat exactly.
-->
<svg xmlns="http://www.w3.org/2000/svg" viewBox="0 0 20 20" width="20" height="20">
  <path fill="#454545" fill-rule="nonzero" d="M 12 10 L 15,10 15,11 12,11 Z M 12 11 L 12,14 11,14 11,11 Z M 6 6 L 5,6 5,7 2,7 2,2 5,2 5,3 3,3 3,6 5,6 5,3 6,3 Z M 15 15 L 12,15 12,14 14,14 14,13 13,13 13,12 15,12 Z M 9 11 L 8,11 8,6 9,6 Z M 18 19 L 17,19 17,14 18,14 Z"/>
</svg>
