<?xml version="1.0" encoding="UTF-8"?>
<!--
  Sunny
  APRS table \, symbol U.

  Generated by tools/symbols_to_vector.py from symbols/symbols.dat.
  Edit the .dat and regenerate, or replace this file with hand drawn art.
  Either way the generator's check mode is the gate: it rasterises every
  outline back to 20x20 and requires it to match the .dat exactly.
-->
<svg xmlns="http://www.w3.org/2000/svg" viewBox="0 0 20 20" width="20" height="20">
  <path fill="#FFFF00" fill-rule="nonzero" d="M 12 7 L 13,7 13,8 14,8 14,13 13,13 13,14 12,14 12,15 7,15 7,14 6,14 6,13 5,13 5,8 6,8 6,7 7,7 7,6 12,6 Z"/>
  <path fill="#CD6500" fill-rule="nonzero" d="M 4 10 L 4,11 2,11 2,10 Z M 4 15 L 5,15 5,16 4,16 Z M 5 15 L 5,14 6,14 6,15 Z M 10 18 L 9,18 9,16 10,16 Z M 16 7 L 17,7 17,8 16,8 Z M 16 8 L 16,9 15,9 15,8 Z M 7 4 L 8,4 8,5 7,5 Z M 7 4 L 6,4 6,3 7,3 Z M 13 14 L 14,14 14,15 13,15 Z M 14 15 L 15,15 15,16 14,16 Z M 17 10 L 17,11 15,11 15,10 Z M 16 13 L 17,13 17,14 16,14 Z M 16 13 L 15,13 15,12 16,12 Z M 7 16 L 8,16 8,17 7,17 Z M 7 17 L 7,18 6,18 6,17 Z M 12 3 L 13,3 13,4 12,4 Z M 12 4 L 12,5 11,5 11,4 Z M 4 5 L 5,5 5,6 4,6 Z M 5 6 L 6,6 6,7 5,7 Z M 3 12 L 4,12 4,13 3,13 Z M 3 13 L 3,14 2,14 2,13 Z M 10 5 L 9,5 9,3 10,3 Z M 2 7 L 3,7 3,8 2,8 Z M 3 8 L 4,8 4,9 3,9 Z M 11 16 L 12,16 12,17 11,17 Z M 12 17 L 13,17 13,18 12,18 Z M 14 5 L 15,5 15,6 14,6 Z M 14 6 L 14,7 13,7 13,6 Z"/>
</svg>
