<?xml version="1.0" encoding="UTF-8"?>
<!--
  digit 8
  APRS table ~, symbol 8.

  Generated by tools/symbols_to_vector.py from symbols/symbols.dat.
  Edit the .dat and regenerate, or replace this file with hand drawn art.
  Either way the generator's check mode is the gate: it rasterises every
  outline back to 20x20 and requires it to match the .dat exactly.
-->
<svg xmlns="http://www.w3.org/2000/svg" viewBox="0 0 20 20" width="20" height="20">
  <path fill="#00BFFF" fill-rule="nonzero" d="M 9 2 L 9,3 1,3 1,2 Z"/>
  <path fill="#0000CD" fill-rule="nonzero" d="M 8 0 L 8,2 2,2 2,0 Z M 8 3 L 8,4 2,4 2,3 Z M 10 3 L 9,3 9,1 10,1 Z M 1 3 L 0,3 0,1 1,1 Z"/>
  <path fill="#878787" fill-rule="nonzero" d="M 9 0 L 10,0 10,1 9,1 Z M 9 1 L 9,2 8,2 8,1 Z M 9 3 L 10,3 10,4 9,4 Z M 0 0 L 1,0 1,1 0,1 Z M 1 1 L 2,1 2,2 1,2 Z M 0 3 L 1,3 1,4 0,4 Z"/>
  <path fill="#454545" fill-rule="nonzero" d="M 1 0 L 2,0 2,1 1,1 Z M 8 3 L 9,3 9,4 8,4 Z M 1 3 L 2,3 2,4 1,4 Z M 8 0 L 9,0 9,1 8,1 Z"/>
</svg>
