<?xml version="1.0" encoding="UTF-8"?>
<!--
  digit 9
  APRS table #, symbol 9.

  Generated by tools/symbols_to_vector.py from symbols/symbols.dat.
  Edit the .dat and regenerate, or replace this file with hand drawn art.
  Either way the generator's check mode is the gate: it rasterises every
  outline back to 20x20 and requires it to match the .dat exactly.
-->
<svg xmlns="http://www.w3.org/2000/svg" viewBox="0 0 20 20" width="20" height="20">
  <path fill="#CCCCCC" fill-rule="nonzero" d="M 13 13 L 13,14 12,14 12,15 8,15 8,14 7,14 7,13 8,13 8,11 7,11 7,10 8,10 8,6 12,6 12,5 8,5 8,4 12,4 12,5 13,5 13,6 12,6 12,10 8,10 8,11 12,11 12,12 11,12 11,13 8,13 8,14 11,14 11,13 12,13 12,12 13,12 13,6 14,6 14,13 Z M 11 7 L 9,7 9,9 11,9 Z M 8 6 L 7,6 7,10 6,10 6,6 7,6 7,5 8,5 Z"/>
  <path fill="#000000" fill-rule="nonzero" d="M 13 12 L 12,12 12,11 8,11 8,10 7,10 7,6 8,6 8,5 12,5 12,6 8,6 8,10 12,10 12,6 13,6 Z M 11 13 L 11,14 8,14 8,13 Z M 12 12 L 12,13 11,13 11,12 Z"/>
</svg>
